<mxfile host="app.diagrams.net" modified="2024-05-19T10:31:40.085Z" agent="Mozilla/5.0 (Windows NT 10.0; Win64; x64) AppleWebKit/537.36 (KHTML, like Gecko) Chrome/120.0.0.0 Safari/537.36" version="24.4.4" etag="i7bRHbkieMvnzvPzHBIQ" type="github">
  <diagram name="第 1 页" id="J-ul5zwoAXM01pvldh0o">
    <mxGraphModel>
      <root>
        <mxCell id="0" />
        <mxCell id="1" parent="0" />
      </root>
    </mxGraphModel>
  </diagram>
</mxfile>
